<svg width="163" height="36" viewBox="0 0 163 36" fill="none" xmlns="http://www.w3.org/2000/svg">
  <path
    d="M48.1734 0.834261C43.8119 0.834261 41.3236 3.30407 41.3236 7.39282L41.3246 7.39383C41.3246 11.3544 43.8129 13.91 48.0887 13.91C52.0248 13.91 54.3215 11.8873 54.7046 8.67163H51.7263C51.4491 10.5035 50.3219 11.6108 48.1099 11.6108C45.664 11.6108 44.2172 10.1846 44.2172 7.37264C44.2172 4.56067 45.5148 3.1345 48.1099 3.1345C50.2372 3.1345 51.3432 4.19832 51.6407 6.05144H54.5977C54.2146 2.94273 52.1942 0.834261 48.1734 0.834261Z"
    fill="white" />
  <path fill-rule="evenodd" clip-rule="evenodd"
    d="M62.3186 13.91C66.4875 13.91 69.0403 11.3756 69.0403 7.32924C69.0403 3.11331 66.2536 0.834261 62.3186 0.834261C58.1497 0.834261 55.5969 3.1991 55.5969 7.41503C55.5969 11.631 58.3836 13.91 62.3186 13.91ZM62.3186 3.13349C64.6163 3.13349 66.1478 4.47488 66.1478 7.41402C66.1478 10.2674 64.7433 11.6088 62.3186 11.6088C60.0209 11.6088 58.4894 10.1816 58.4894 7.32823C58.4894 4.47488 59.8939 3.13349 62.3186 3.13349Z"
    fill="white" />
  <path
    d="M73.4432 1.04622H70.593V13.697H73.4432V5.11479C74.1883 3.68761 75.2086 3.02751 76.8469 3.02751C78.8885 3.02751 79.931 3.96517 79.931 6.00905V13.696H82.7812V5.6033C82.7812 2.57938 81.1227 0.833252 78.1868 0.833252C75.5917 0.833252 74.1661 2.17565 73.4432 4.41129V1.04622Z"
    fill="white" />
  <path
    d="M86.9512 9.82024H83.9729L83.974 9.82125C84.2925 12.3557 86.186 13.91 90.2702 13.91C94.3545 13.91 96.0775 12.2275 96.0775 9.97063C96.0775 8.05494 95.1631 6.73374 92.3975 6.41479L88.5895 5.96766C87.4624 5.83948 87.0581 5.39235 87.0581 4.64747C87.0581 3.75321 87.7386 3.07192 89.9083 3.07192C92.0779 3.07192 92.822 3.79561 92.9924 4.90283H95.9495C95.5875 2.49661 94.0339 0.835271 89.993 0.835271C85.9521 0.835271 84.3137 2.5602 84.3137 4.81704C84.3137 6.79732 85.3562 7.99034 88.1429 8.30929L91.8017 8.73522C93.0146 8.8846 93.3332 9.39531 93.3332 10.0766C93.3332 10.9921 92.5034 11.6733 90.3337 11.6733C88.1641 11.6733 87.1851 11.0768 86.9512 9.82024Z"
    fill="white" />
  <path fill-rule="evenodd" clip-rule="evenodd"
    d="M97.1613 7.41402C97.1613 11.1192 99.4591 13.909 103.756 13.909C107.351 13.909 109.563 12.2053 110.202 9.60727H107.287C106.861 10.8639 105.776 11.6088 103.841 11.6088C101.692 11.6088 100.31 10.3521 100.055 8.09531H110.286C110.307 3.6654 108.393 0.833252 103.777 0.833252C99.6284 0.833252 97.1613 3.49584 97.1613 7.41402ZM107.287 6.15742H100.097C100.459 4.13474 101.778 3.06991 103.756 3.06991C106.01 3.06991 107.095 4.28311 107.287 6.15742Z"
    fill="white" />
  <path
    d="M114.54 1.04622H111.69V13.697H114.54V5.11479C115.285 3.68761 116.305 3.02751 117.944 3.02751C119.985 3.02751 121.028 3.96517 121.028 6.00905V13.696H123.878V5.6033C123.878 2.57938 122.219 0.833252 119.283 0.833252C116.688 0.833252 115.263 2.17565 114.54 4.41129V1.04622Z"
    fill="white" />
  <path
    d="M128.048 9.82024H125.07L125.071 9.82125C125.389 12.3557 127.283 13.91 131.367 13.91C135.451 13.91 137.174 12.2275 137.174 9.97063C137.174 8.05494 136.26 6.73374 133.494 6.41479L129.686 5.96766C128.559 5.83948 128.155 5.39235 128.155 4.64747C128.155 3.75321 128.835 3.07192 131.005 3.07192C133.175 3.07192 133.919 3.79561 134.089 4.90283H137.046C136.684 2.49661 135.131 0.835271 131.09 0.835271C127.049 0.835271 125.41 2.5602 125.41 4.81704C125.41 6.79732 126.453 7.99034 129.24 8.30929L132.898 8.73522C134.111 8.8846 134.43 9.39531 134.43 10.0766C134.43 10.9921 133.6 11.6733 131.43 11.6733C129.261 11.6733 128.282 11.0768 128.048 9.82024Z"
    fill="white" />
  <path
    d="M145.468 16.8057L150.765 1.04723H147.786L144.127 12.1205L140.319 1.04723H137.171L141.319 12.3122H144.063L143.362 14.4631H138.554V16.8057H145.468Z"
    fill="white" />
  <path
    d="M153.7 9.82125H150.721L150.723 9.82226C151.041 12.3567 152.935 13.911 157.019 13.911C161.103 13.911 162.826 12.2285 162.826 9.97164C162.826 8.05595 161.912 6.73475 159.146 6.4158L155.338 5.96867C154.211 5.84049 153.807 5.39336 153.807 4.64848C153.807 3.75422 154.487 3.07293 156.657 3.07293C158.827 3.07293 159.571 3.79662 159.741 4.90384H162.698C162.336 2.49762 160.782 0.83628 156.742 0.83628C152.701 0.83628 151.062 2.56121 151.062 4.81805C151.062 6.79833 152.105 7.99135 154.891 8.31029L158.55 8.73623C159.763 8.88561 160.082 9.39632 160.082 10.0776C160.082 10.9931 159.252 11.6744 157.082 11.6744C154.913 11.6744 153.934 11.0779 153.7 9.82125Z"
    fill="white" />
  <path fill-rule="evenodd" clip-rule="evenodd"
    d="M34.748 18.4406V13.6968H34.747L34.748 13.6958V1.04704H22.1121H17.3735C7.77834 1.04704 0 8.83394 0 18.4396C0 28.0453 7.77935 35.8333 17.3745 35.8333C26.9696 35.8333 34.748 28.0463 34.748 18.4406ZM13.4253 9.74334L22.1121 1.04704V13.6968H34.747L26.0592 22.3972H13.4253V9.74334Z"
    fill="white" />
</svg>