<svg width="24" height="25" viewBox="0 0 24 25" fill="none" xmlns="http://www.w3.org/2000/svg">
<path d="M19.9957 9.43774L15.6235 7.62645V3.22314H6.3016L2.08749 7.43728H2.06702V11.6514V17.9832H8.24984L9.18725 20.2455L14.5915 22.4839L19.9957 20.2455L22.2341 14.8413L19.9957 9.43703V9.43774ZM7.37243 15.8662H4.18466V13.7697H7.39219L6.94819 14.842L7.37243 15.8662ZM8.26961 11.6521H4.18466V9.55563H9.13784L8.26961 11.6521ZM4.18466 7.43798V5.3415H13.5058V7.43798H4.18466ZM18.375 18.6262L14.5915 20.1933L10.808 18.6262L9.2409 14.8427L10.808 11.0591L14.5915 9.49209L18.375 11.0591L19.9421 14.8427L18.375 18.6262Z" fill="#C1FF14"/>
<path d="M15.7884 13.6448H13.394V16.0391H15.7884V13.6448Z" fill="#C1FF14"/>
</svg>
