<svg width="24" height="25" viewBox="0 0 24 25" fill="none" xmlns="http://www.w3.org/2000/svg">
<path fill-rule="evenodd" clip-rule="evenodd" d="M2.39404 22.2121H4.51169V19.5417H9.03569V22.2121H11.1533V17.4241H2.39404V22.2121Z" fill="#C1FF14"/>
<path fill-rule="evenodd" clip-rule="evenodd" d="M12.7932 12.636V22.212H14.9109V14.7536H19.4356V22.212H21.5532V12.636H12.7932Z" fill="#C1FF14"/>
<path fill-rule="evenodd" clip-rule="evenodd" d="M3.67945 8.33518C1.96557 10.0498 1.96557 12.8295 3.67945 14.5427C5.39334 16.2573 8.1724 16.2573 9.88628 14.5427C11.6002 12.8295 11.6002 10.0498 9.88628 8.33518C8.1724 6.622 5.39334 6.622 3.67945 8.33518ZM6.78322 14.5907L3.63145 11.4396L6.78322 8.28718L9.93498 11.4396L6.78322 14.5907Z" fill="#C1FF14"/>
<path fill-rule="evenodd" clip-rule="evenodd" d="M20.2604 9.75461C21.9743 8.04144 21.9743 5.26168 20.2604 3.54709C18.5465 1.83391 15.7675 1.83391 14.0536 3.54709C12.3397 5.26168 12.3397 8.04144 14.0536 9.75461C15.7675 11.4692 18.5465 11.4692 20.2604 9.75461ZM17.1567 3.49908L20.3084 6.65156L17.1567 9.80261L14.0049 6.65156L17.1567 3.49908Z" fill="#C1FF14"/>
</svg>
