<svg width="24" height="25" viewBox="0 0 24 25" fill="none" xmlns="http://www.w3.org/2000/svg">
<path d="M17.6332 8.43675L16.232 8.43816V4.59463L11.936 3.00781L7.71978 4.60028V8.44522L6.30872 8.44663L3.96802 14.1113L6.31861 19.7718L11.9833 22.1125L17.6438 19.7619L19.9845 14.0972L17.6339 8.43675H17.6332ZM9.83672 6.06428L11.9438 5.26805L14.1144 6.06993V8.22428H9.83672V6.06428ZM16.021 18.1433L11.9805 19.8212L7.93719 18.1504L6.25931 14.1099L7.72472 10.5636L16.22 10.5565L17.6918 14.1L16.021 18.1433Z" fill="#C1FF14"/>
<path d="M11.4055 14.4579L10.3989 13.4513L9.15234 14.6979L11.4055 16.951L14.7987 13.5579L13.5521 12.3113L11.4055 14.4579Z" fill="#C1FF14"/>
</svg>
